<mxfile host="app.diagrams.net" modified="2021-02-21T21:04:23.731Z" agent="5.0 (Macintosh; Intel Mac OS X 10_15_6) AppleWebKit/605.1.15 (KHTML, like Gecko) Version/14.0.3 Safari/605.1.15" etag="fBVlOT0cn3ia4vPWMRXB" version="14.4.2" type="github">
  <diagram id="PQF16cBuGBhj18qzgqKb" name="Page-1">
    <mxGraphModel dx="1063" dy="1160" grid="1" gridSize="10" guides="1" tooltips="1" connect="1" arrows="1" fold="1" page="1" pageScale="1" pageWidth="850" pageHeight="1100" math="0" shadow="0">
      <root>
        <mxCell id="0" />
        <mxCell id="1" parent="0" />
        <mxCell id="5eWCBEinhFXzkITloY2Y-1" value="" style="rounded=0;whiteSpace=wrap;html=1;" vertex="1" parent="1">
          <mxGeometry x="40" y="40" width="200" height="110" as="geometry" />
        </mxCell>
        <mxCell id="5eWCBEinhFXzkITloY2Y-13" style="edgeStyle=orthogonalEdgeStyle;rounded=0;orthogonalLoop=1;jettySize=auto;html=1;" edge="1" parent="1" source="5eWCBEinhFXzkITloY2Y-4">
          <mxGeometry relative="1" as="geometry">
            <mxPoint x="320" y="100" as="targetPoint" />
          </mxGeometry>
        </mxCell>
        <mxCell id="5eWCBEinhFXzkITloY2Y-4" value="&lt;p style=&quot;line-height: 0%&quot;&gt;&lt;/p&gt;&lt;h1&gt;&lt;br&gt;&lt;/h1&gt;&lt;p&gt;&lt;/p&gt;" style="text;html=1;strokeColor=none;fillColor=none;spacing=5;spacingTop=-20;whiteSpace=wrap;overflow=hidden;rounded=0;" vertex="1" parent="1">
          <mxGeometry x="40" y="40" width="200" height="120" as="geometry" />
        </mxCell>
        <mxCell id="5eWCBEinhFXzkITloY2Y-5" value="&lt;font style=&quot;font-size: 14px&quot;&gt;hash = &quot;1&quot;&lt;br&gt;prev_hash = &quot;0&quot;&lt;br&gt;amount = 1&lt;br&gt;timestamp = 02/21/2021&amp;nbsp;&lt;br&gt;&lt;/font&gt;" style="text;html=1;strokeColor=none;fillColor=none;align=left;verticalAlign=middle;whiteSpace=wrap;rounded=0;" vertex="1" parent="1">
          <mxGeometry x="60" y="55" width="160" height="80" as="geometry" />
        </mxCell>
        <mxCell id="5eWCBEinhFXzkITloY2Y-6" value="Block" style="text;html=1;strokeColor=none;fillColor=none;align=center;verticalAlign=middle;whiteSpace=wrap;rounded=0;" vertex="1" parent="1">
          <mxGeometry x="120" y="20" width="40" height="20" as="geometry" />
        </mxCell>
        <mxCell id="5eWCBEinhFXzkITloY2Y-14" value="" style="rounded=0;whiteSpace=wrap;html=1;" vertex="1" parent="1">
          <mxGeometry x="320" y="40" width="200" height="110" as="geometry" />
        </mxCell>
        <mxCell id="5eWCBEinhFXzkITloY2Y-15" style="edgeStyle=orthogonalEdgeStyle;rounded=0;orthogonalLoop=1;jettySize=auto;html=1;" edge="1" parent="1" source="5eWCBEinhFXzkITloY2Y-16">
          <mxGeometry relative="1" as="geometry">
            <mxPoint x="600" y="100" as="targetPoint" />
          </mxGeometry>
        </mxCell>
        <mxCell id="5eWCBEinhFXzkITloY2Y-16" value="&lt;p style=&quot;line-height: 0%&quot;&gt;&lt;/p&gt;&lt;h1&gt;&lt;br&gt;&lt;/h1&gt;&lt;p&gt;&lt;/p&gt;" style="text;html=1;strokeColor=none;fillColor=none;spacing=5;spacingTop=-20;whiteSpace=wrap;overflow=hidden;rounded=0;" vertex="1" parent="1">
          <mxGeometry x="320" y="40" width="200" height="120" as="geometry" />
        </mxCell>
        <mxCell id="5eWCBEinhFXzkITloY2Y-17" value="&lt;font style=&quot;font-size: 14px&quot;&gt;hash = &quot;2&quot;&lt;br&gt;prev_hash = &quot;1&quot;&lt;br&gt;amount = 1&lt;br&gt;timestamp = 02/21/2021&amp;nbsp;&lt;br&gt;&lt;/font&gt;" style="text;html=1;strokeColor=none;fillColor=none;align=left;verticalAlign=middle;whiteSpace=wrap;rounded=0;" vertex="1" parent="1">
          <mxGeometry x="340" y="55" width="160" height="80" as="geometry" />
        </mxCell>
        <mxCell id="5eWCBEinhFXzkITloY2Y-18" value="Block" style="text;html=1;strokeColor=none;fillColor=none;align=center;verticalAlign=middle;whiteSpace=wrap;rounded=0;" vertex="1" parent="1">
          <mxGeometry x="400" y="20" width="40" height="20" as="geometry" />
        </mxCell>
        <mxCell id="5eWCBEinhFXzkITloY2Y-19" value="" style="rounded=0;whiteSpace=wrap;html=1;" vertex="1" parent="1">
          <mxGeometry x="600" y="40" width="200" height="110" as="geometry" />
        </mxCell>
        <mxCell id="5eWCBEinhFXzkITloY2Y-20" value="&lt;p style=&quot;line-height: 0%&quot;&gt;&lt;/p&gt;&lt;h1&gt;&lt;br&gt;&lt;/h1&gt;&lt;p&gt;&lt;/p&gt;" style="text;html=1;strokeColor=none;fillColor=none;spacing=5;spacingTop=-20;whiteSpace=wrap;overflow=hidden;rounded=0;" vertex="1" parent="1">
          <mxGeometry x="600" y="40" width="200" height="120" as="geometry" />
        </mxCell>
        <mxCell id="5eWCBEinhFXzkITloY2Y-21" value="&lt;font style=&quot;font-size: 14px&quot;&gt;hash = &quot;3&quot;&lt;br&gt;prev_hash = &quot;2&quot;&lt;br&gt;amount = 1&lt;br&gt;timestamp = 02/22/2021&amp;nbsp;&lt;br&gt;&lt;/font&gt;" style="text;html=1;strokeColor=none;fillColor=none;align=left;verticalAlign=middle;whiteSpace=wrap;rounded=0;" vertex="1" parent="1">
          <mxGeometry x="620" y="55" width="160" height="80" as="geometry" />
        </mxCell>
        <mxCell id="5eWCBEinhFXzkITloY2Y-22" value="Block" style="text;html=1;strokeColor=none;fillColor=none;align=center;verticalAlign=middle;whiteSpace=wrap;rounded=0;" vertex="1" parent="1">
          <mxGeometry x="680" y="20" width="40" height="20" as="geometry" />
        </mxCell>
      </root>
    </mxGraphModel>
  </diagram>
</mxfile>
